<svg width="44" height="43" viewBox="0 0 44 43" fill="none" xmlns="http://www.w3.org/2000/svg">
<rect opacity="0.8" width="44" height="43" rx="21.5" fill="#0098FF"/>
<path fill-rule="evenodd" clip-rule="evenodd" d="M19.6 16.2C20.7 16.2 21.6 17.1 21.6 18.2C21.6 19.3 20.7 20.2 19.6 20.2C18.5 20.2 17.6 19.3 17.6 18.2C17.6 17.1 18.5 16.2 19.6 16.2ZM17.6 25.8H26.4V21.9H17.6V25.8ZM29 17.9L24.6 14H15.5C15.2239 14 15 14.2239 15 14.5V27.5C15 27.7761 15.2239 28 15.5 28H28.5C28.7761 28 29 27.7761 29 27.5V17.9Z" fill="#F8F9F9"/>
</svg>
